<?xml version="1.0" encoding="UTF-8" standalone="no"?>
<svg
   xmlns:dc="http://purl.org/dc/elements/1.1/"
   xmlns:cc="http://creativecommons.org/ns#"
   xmlns:rdf="http://www.w3.org/1999/02/22-rdf-syntax-ns#"
   xmlns:svg="http://www.w3.org/2000/svg"
   xmlns="http://www.w3.org/2000/svg"
   xmlns:xlink="http://www.w3.org/1999/xlink"
   xmlns:sodipodi="http://sodipodi.sourceforge.net/DTD/sodipodi-0.dtd"
   xmlns:inkscape="http://www.inkscape.org/namespaces/inkscape"
   viewBox="0 0 180 160"
   id="svg2"
   version="1.1"
   inkscape:version="0.91 r13725"
   sodipodi:docname="basket.svg">
  <metadata
     id="metadata268">
    <rdf:RDF>
      <cc:Work
         rdf:about="">
        <dc:format>image/svg+xml</dc:format>
        <dc:type
           rdf:resource="http://purl.org/dc/dcmitype/StillImage" />
        <dc:title></dc:title>
      </cc:Work>
    </rdf:RDF>
  </metadata>
  <sodipodi:namedview
     pagecolor="#ffffff"
     bordercolor="#666666"
     borderopacity="1"
     objecttolerance="10"
     gridtolerance="10"
     guidetolerance="10"
     inkscape:pageopacity="0"
     inkscape:pageshadow="2"
     inkscape:window-width="1440"
     inkscape:window-height="848"
     id="namedview266"
     showgrid="false"
     inkscape:zoom="1.475"
     inkscape:cx="90"
     inkscape:cy="80"
     inkscape:window-x="0"
     inkscape:window-y="52"
     inkscape:window-maximized="0"
     inkscape:current-layer="svg2" />
  <defs
     id="defs4">
    <filter
       id="filter3560">
      <feGaussianBlur
         stdDeviation=".35123"
         id="feGaussianBlur7" />
    </filter>
    <filter
       id="filter3586">
      <feGaussianBlur
         stdDeviation=".307"
         id="feGaussianBlur10" />
    </filter>
    <filter
       id="filter3616">
      <feGaussianBlur
         stdDeviation=".57202"
         id="feGaussianBlur13" />
    </filter>
    <filter
       id="filter3485">
      <feGaussianBlur
         stdDeviation=".42746"
         id="feGaussianBlur16" />
    </filter>
    <filter
       id="filter3904" />
    <filter
       height="1.26655"
       id="filter3671"
       width="1.2615"
       x="-.13075"
       y="-.13328">
      <feGaussianBlur
         stdDeviation=".61612"
         id="feGaussianBlur20" />
    </filter>
    <filter
       height="1.05906"
       id="filter3699"
       width="1.25634"
       x="-.12817"
       y="-.02953">
      <feGaussianBlur
         stdDeviation=".65036"
         id="feGaussianBlur23" />
    </filter>
    <filter
       height="1.21634"
       id="filter3749"
       width="1.04319"
       x="-.02159"
       y="-.10817">
      <feGaussianBlur
         stdDeviation=".31819"
         id="feGaussianBlur26" />
    </filter>
    <linearGradient
       id="linearGradient3546">
      <stop
         offset="0"
         stop-color="#216908"
         id="stop29" />
      <stop
         offset="1"
         stop-color="#2e3436"
         id="stop31" />
    </linearGradient>
    <linearGradient
       id="linearGradient3514">
      <stop
         offset="0"
         stop-color="#fff"
         stop-opacity=".0051"
         id="stop34" />
      <stop
         offset="1"
         stop-color="#fff"
         id="stop36" />
    </linearGradient>
    <linearGradient
       id="linearGradient3474">
      <stop
         offset="0"
         stop-color="#fff"
         stop-opacity="0"
         id="stop39" />
      <stop
         offset=".5"
         stop-color="#fff"
         stop-opacity=".4949"
         id="stop41" />
      <stop
         offset="1"
         stop-color="#fff"
         stop-opacity="0"
         id="stop43" />
    </linearGradient>
    <linearGradient
       id="linearGradient3444">
      <stop
         offset="0"
         stop-color="#a7d939"
         id="stop46" />
      <stop
         offset="1"
         stop-color="#3e8f07"
         id="stop48" />
    </linearGradient>
    <linearGradient
       id="linearGradient3436">
      <stop
         offset="0"
         stop-color="#fff"
         id="stop51" />
      <stop
         offset="1"
         stop-color="#fff"
         stop-opacity="0"
         id="stop53" />
    </linearGradient>
    <linearGradient
       id="linearGradient3418">
      <stop
         offset="0"
         stop-color="#91d007"
         id="stop56" />
      <stop
         offset="1"
         stop-color="#217808"
         id="stop58" />
    </linearGradient>
    <linearGradient
       gradientUnits="userSpaceOnUse"
       id="linearGradient3233"
       x1="371.56274"
       x2="233.19836"
       y1="103.64373"
       y2="110.32119">
      <stop
         offset="0"
         stop-color="#216908"
         id="stop61" />
      <stop
         offset="1"
         stop-color="#91d007"
         id="stop63" />
    </linearGradient>
    <linearGradient
       gradientUnits="userSpaceOnUse"
       id="linearGradient3235"
       x2="0"
       y1="78.76923"
       y2="197.62621">
      <stop
         offset="0"
         stop-color="#217808"
         id="stop66" />
      <stop
         offset="1"
         stop-color="#216908"
         id="stop68" />
    </linearGradient>
    <linearGradient
       gradientUnits="userSpaceOnUse"
       id="linearGradient3239"
       x1="387.62753"
       x2="385.73962"
       y1="86.02429"
       y2="84.98785">
      <stop
         offset="0"
         stop-color="#91d007"
         id="stop71" />
      <stop
         offset="1"
         stop-color="#91d04a"
         id="stop73" />
    </linearGradient>
    <linearGradient
       gradientUnits="userSpaceOnUse"
       id="linearGradient3257"
       x1="377.79959"
       x2="395.65991">
      <stop
         offset="0"
         stop-color="#216908"
         id="stop76" />
      <stop
         offset=".67943"
         stop-color="#217808"
         id="stop78" />
      <stop
         offset="1"
         stop-color="#fdffff"
         id="stop80" />
    </linearGradient>
    <linearGradient
       gradientUnits="userSpaceOnUse"
       id="linearGradient3277"
       x1="388.14575"
       x2="480.64777">
      <stop
         offset="0"
         stop-color="#4d4d4d"
         stop-opacity="0"
         id="stop83" />
      <stop
         offset=".5"
         stop-color="#4d4d4d"
         stop-opacity=".58163"
         id="stop85" />
      <stop
         offset="1"
         stop-color="#4d4d4d"
         stop-opacity="0"
         id="stop87" />
    </linearGradient>
    <linearGradient
       gradientUnits="userSpaceOnUse"
       id="linearGradient3281"
       x1="26.36161"
       x2="37.67228"
       y1="24.22672"
       y2="3.77649">
      <stop
         offset="0"
         stop-color="#bbbaff"
         id="stop90" />
      <stop
         offset=".25"
         stop-color="#caedff"
         id="stop92" />
      <stop
         offset=".45022"
         stop-color="#fff"
         id="stop94" />
      <stop
         offset=".60697"
         stop-color="#caedff"
         id="stop96" />
      <stop
         offset=".708"
         stop-color="#dddcff"
         id="stop98" />
      <stop
         offset="1"
         stop-color="#bbbaff"
         id="stop100" />
    </linearGradient>
    <linearGradient
       gradientUnits="userSpaceOnUse"
       id="linearGradient3237"
       x1="413.22452"
       x2="415.77084"
       xlink:href="#linearGradient3418"
       y1="47.69075"
       y2="193.79169" />
    <linearGradient
       gradientUnits="userSpaceOnUse"
       id="linearGradient3243"
       x1="494.38055"
       x2="370.00809"
       xlink:href="#linearGradient3418"
       y1="106.75304"
       y2="231.1255" />
    <linearGradient
       gradientUnits="userSpaceOnUse"
       id="linearGradient3245"
       x1="381.40891"
       x2="285.06339"
       xlink:href="#linearGradient3418"
       y1="150.80162"
       y2="218.31998" />
    <linearGradient
       gradientUnits="userSpaceOnUse"
       id="linearGradient3253"
       x1="439.71021"
       x2="435.69229"
       xlink:href="#linearGradient3546"
       y1="144.96992"
       y2="118.2201" />
    <linearGradient
       gradientUnits="userSpaceOnUse"
       id="linearGradient3255"
       x1="499.45215"
       x2="388.78848"
       xlink:href="#linearGradient3418"
       y1="95.13464"
       y2="145.70279" />
    <linearGradient
       gradientUnits="userSpaceOnUse"
       id="linearGradient3259"
       x1="310.62828"
       x2="387.45054"
       xlink:href="#linearGradient3546" />
    <linearGradient
       gradientUnits="userSpaceOnUse"
       id="linearGradient3261"
       x1="383.48178"
       x2="270.51013"
       xlink:href="#linearGradient3418"
       y1="148.21053"
       y2="123.33603" />
    <linearGradient
       gradientUnits="userSpaceOnUse"
       id="linearGradient3263"
       x1="384.68704"
       x2="397.0448"
       xlink:href="#linearGradient3444" />
    <linearGradient
       gradientUnits="userSpaceOnUse"
       id="linearGradient3265"
       x1="380.36047"
       x2="401.61374"
       xlink:href="#linearGradient3444"
       y1="186.37718"
       y2="184.91029" />
    <linearGradient
       gradientUnits="userSpaceOnUse"
       id="linearGradient3267"
       x1="392.08643"
       x2="389.88779"
       xlink:href="#linearGradient3436"
       y1="151.93221"
       y2="60.32323" />
    <linearGradient
       gradientUnits="userSpaceOnUse"
       id="linearGradient3269"
       x1="384.68286"
       x2="395.1153"
       xlink:href="#linearGradient3474" />
    <linearGradient
       gradientUnits="userSpaceOnUse"
       id="linearGradient3271"
       x1="384.68704"
       x2="397.0448"
       xlink:href="#linearGradient3474" />
    <linearGradient
       gradientUnits="userSpaceOnUse"
       id="linearGradient3273"
       x1="414.80545"
       x2="323.19647"
       xlink:href="#linearGradient3436"
       y1="58.12461"
       y2="181.97995" />
    <linearGradient
       gradientUnits="userSpaceOnUse"
       id="linearGradient3275"
       x1="330.10526"
       x2="334.25101"
       xlink:href="#linearGradient3546"
       y1="152.35628"
       y2="135.90285" />
    <linearGradient
       gradientUnits="userSpaceOnUse"
       id="linearGradient3279"
       x1="409.41751"
       x2="394.71014"
       xlink:href="#linearGradient3546"
       y1="90.20297"
       y2="94.41349" />
    <radialGradient
       cx="66.25389"
       cy="-6.76969"
       gradientTransform="matrix(1,0,0,1.40594,0,2.55068)"
       gradientUnits="userSpaceOnUse"
       id="radialGradient3283"
       r="1.68421">
      <stop
         offset="0"
         stop-color="#fff"
         id="stop118" />
      <stop
         offset="1"
         stop-color="#d3d2ff"
         id="stop120" />
    </radialGradient>
    <radialGradient
       cx="425.04926"
       cy="164.79234"
       gradientTransform="matrix(2.71467,-.03712,.12248,8.95815,-706.71067,-1308.1787)"
       gradientUnits="userSpaceOnUse"
       id="radialGradient3241"
       r="4.48715"
       xlink:href="#linearGradient3514" />
    <radialGradient
       cx="425.04926"
       cy="164.79234"
       gradientTransform="matrix(2.71467,-.03712,.12248,8.95815,-720.2688,-1301.5829)"
       gradientUnits="userSpaceOnUse"
       id="radialGradient3247"
       r="4.48715"
       xlink:href="#linearGradient3514" />
    <radialGradient
       cx="425.04926"
       cy="164.79234"
       gradientTransform="matrix(2.71467,-.03712,.12248,8.95815,-734.5598,-1294.9871)"
       gradientUnits="userSpaceOnUse"
       id="radialGradient3249"
       r="4.48715"
       xlink:href="#linearGradient3514" />
    <radialGradient
       cx="425.04926"
       cy="164.79234"
       gradientTransform="matrix(2.71467,-.03712,.12248,8.95815,-747.38506,-1289.1241)"
       gradientUnits="userSpaceOnUse"
       id="radialGradient3251"
       r="4.48715"
       xlink:href="#linearGradient3514" />
  </defs>
  <g
     filter="url(#filter3485)"
     opacity=".5"
     transform="matrix(3.6419,0,0,3.6419,.1431,-20.12521)"
     id="g126">
    <g
       transform="matrix(.21615,0,0,.21615,-59.47244,-.26436)"
       id="g128">
      <path
         d="m387.41742,80.00209-32.21919,12.76659c0,0-1.17368-8.95572-11.00509-6.81271-7.2523,1.58082-8.90573,12.63133-10.09662,13.73064l-44.74619,15.71356 2.52859,17.43547 95.93332-42.56506c-.14242.11832.4925-10.6645-.39482-10.26849z"
         fill-rule="evenodd"
         id="path130" />
      <path
         d="m388.00986,89.89844-93.22859,41.38656 9.15233,66.3412 84.63657-20.15342-.56031-87.57434zm-18.63484,10.59074-.1875,52.20763-8.40625,3.84375-.009-52.37801 8.60231-3.67337zm-14.15625,5.34247 .34375,53.89641-8.4375,3.875-.0668-54.17766 8.16053-3.59375zm-14.18322,6.9559 .93322,53.34676-9.25,4.5 .64769-54.11944 7.66909-3.72732zm-13.65197,6.06679 .96019,53.90497-8.4375,3.875-1.02269-54.11944 8.5-3.66053z"
         fill-rule="evenodd"
         id="path132" />
      <path
         d="m389.7615,79.93711c-.73767.22159-1.45541.48184-2.1875.71875v75.03125l5.875,58.625 85-42.5 4.28125-72.5h.0312l.78125-5.9375-1.5.25c-30.74497-4.61002-61.43646-9.99613-92.28125-13.6875zm33.125,16.8125 23.6875,2.5c1e-005-1e-005-.68022,1.29031-1.65625,2.25-1.51898,1.35995-11.92729,1.51338-19.96875-.4375-1.55918-.99881-2.06251-4.3125-2.0625-4.3125z"
         fill-rule="evenodd"
         id="path134" />
      <path
         d="m389.4375,75.59375c-1.61153.04237-3.21875.5-3.21875.5l-29.3125,11.71875c1e-005-2e-006-4.48192-7.86646-14.28125-4.78125-9.36378,2.94808-10.625,13.9375-10.625,13.9375l-50.96875,17.46875c-1e-005,0-1.9466.83445-1.0625,2.1875 .90296,1.38195 3.25,1.40625 3.25,1.40625l103.28125,18.15625c-1e-005,0 3.13451.89118 4.34375.78125s4.09375-1.625 4.09375-1.625l40.03125-16.75c-1e-005,0 2.68188-10.32726 9.53125-13.1875 6.97257-2.91168 10.25,3.65625 10.25,3.65625l35-14.65625c1e-005,3e-006 2.86884-1.47457 1.71875-2.84375-1.09835-1.30759-5.28125-1.625-5.28125-1.625l-92.75-14.15625c-.0142.06206-1.7362-.09759-3.3125-.1875-.22519-.01284-.45728-.0061-.6875,0zm-.21875,4.03125c30.95007,3.70397 61.74346,9.12971 92.59375,13.75-7.75266,3.36465-15.63763,6.44361-23.40625,9.78125-2.16109,2.68799-3.47977-.33191-5.4375-1.375-9.43807-4.23734-18.48108,4.67109-21.09375,13.15625-12.83132,6.78825-27.64951,11.75187-41.21875,17.90625-33.28372-5.75993-66.52667-11.75267-99.8125-17.5 13.03097-4.59493 26.21789-8.86037 39.25-13.5 6.36711-1.27099 6.00695-6.09368 7.71875-9.8125 2.90198-7.40618 15.49166-7.49803 17.25.78125 11.49615-4.122 22.45423-9.67215 34.15625-13.1875z"
         fill-rule="evenodd"
         id="path136" />
      <path
         d="m467.35547,115.38068 .72572,54.68474-7.68163,3.80884-.10787.64642 8.41181-3.76849 .5625-.21875-.0312-.5625-.52697-55.32312-1.35231.73286z"
         fill-rule="evenodd"
         id="path138" />
      <path
         d="m486.76434,106.02162-92.3125,43.21875-.375,68.90625 86.46875-45.4375 6.21875-66.6875zm-17.71875,9.125-.1875,54.40625-8.40625,3.84375-.375-53.84375 8.96875-4.40625zm-14.15625,6.625 .34375,54.8125-8.4375,3.875-.25-55.09375 8.34375-3.59375zm-14,6.40625 .75,54.8125-9.25,4.5 .28125-55.21875 8.21875-4.09375zm-13.46875,6.25 .59375,55.1875-8.4375,3.875-.65625-55.21875 8.5-3.84375z"
         fill-rule="evenodd"
         id="path140" />
      <path
         d="m299.72083,197.79956 85.01313,20.52041 1.46574-66.69133-38.97176-6.68095c0,0-3.53503,6.01493-5.90743,5.60005-2.35377-.41161-20.46889-3.3717-23.49254-4.22322-3.17865-.89518-2.80193-7.71357-2.80193-7.71357l-29.96264-5.30411 14.65743,64.49272z"
         fill-rule="evenodd"
         id="path142" />
      <path
         d="m453.79734,121.97653 .72572,54.68474-7.68163,3.80884-.10787.64642 8.41181-3.76849 .5625-.21875-.0312-.5625-.52697-55.32312-1.35231.73286z"
         fill-rule="evenodd"
         id="path144" />
      <path
         d="m439.50634,128.57238 .72572,54.68474-7.68163,3.80884-.10787.64642 8.41181-3.76849 .5625-.21875-.0312-.5625-.52697-55.32312-1.35231.73286z"
         fill-rule="evenodd"
         id="path146" />
      <path
         d="m426.68108,134.43535 .72572,54.68474-7.68163,3.80884-.10787.64642 8.41181-3.76849 .5625-.21875-.0312-.5625-.52697-55.32312-1.35231.73286z"
         fill-rule="evenodd"
         id="path148" />
      <path
         d="m486.06378,106.41181-92.70718,43.07534 .55266,4.71147 91.9743-46.52524 .18022-1.26157z"
         fill-rule="evenodd"
         filter="url(#filter3560)"
         opacity=".5"
         id="path150" />
      <path
         d="m489.23165,94.93231-35,14.65625c0,0-3.27744-6.56793-10.25-3.65625-6.84937,2.86024-9.53127,13.1875-9.53125,13.1875l-40.03125,16.75-.0625.0312v13.90625l96-45.4375c1.93045-13.87359 3.43431-13.61282-1.125-9.4375z"
         fill-rule="evenodd"
         id="path152" />
      <path
         d="m385.29555,81.36032-1.81377,50.26721 6.99595,1.29555 4.92308-2.07288 .25911-50.2672-6.21862-.51822-4.14575,1.29555z"
         fill-rule="evenodd"
         filter="url(#filter3699)"
         opacity=".7"
         id="path154" />
      <path
         d="m387.13867,90.10147-76.43358,33.79492-.0768,3.78644 76.82225-36.90424-.31187-.67713z"
         fill-rule="evenodd"
         filter="url(#filter3616)"
         opacity=".7"
         id="path156" />
      <path
         d="m279.41397,116.63803 3.53125,16.53125 103.65625,19.1875v-16.40625l-1.125-.28125-103.28125-18.15625c0,0-1.71844-.0157-2.78125-.875z"
         fill-rule="evenodd"
         id="path158" />
      <path
         d="m384.68704,135.63971 .13234,16.58607c0,0 4.7486.81125 6.12962.65678s6.0958-3.91869 6.0958-3.91869l-.87527-13.98003c-1.33195.19643-3.97474,2.41797-5.75928,1.99913l-5.72321-1.34326z"
         fill-rule="evenodd"
         id="path160" />
      <path
         d="m385.31078,152.1447-.62792,66.03536c0,0 4.06391,1.28468 5.59066,1.19457 1.65892-.0979 4.84179-1.53532 4.84179-1.53532l-.41146-67.39789c-1.35006.78349-2.12622,2.1434-4.20906,2.01725l-5.18401-.31397z"
         fill-rule="evenodd"
         id="path162" />
      <path
         d="m389.4375,75.59375c-1.61153.04237-3.21875.5-3.21875.5l-29.3125,11.71875c1e-005-2e-006-4.48192-7.86646-14.28125-4.78125-9.36378,2.94808-10.625,13.9375-10.625,13.9375l-50.96875,17.46875c-1e-005,0-1.9466.83445-1.0625,2.1875 .90296,1.38195 3.25,1.40625 3.25,1.40625l103.28125,18.15625c-1e-005,0 3.13451.89118 4.34375.78125s4.09375-1.625 4.09375-1.625l40.03125-16.75c-1e-005,0 2.68188-10.32726 9.53125-13.1875 6.97257-2.91168 10.25,3.65625 10.25,3.65625l35-14.65625c1e-005,3e-006 2.86884-1.47457 1.71875-2.84375-1.09835-1.30759-5.28125-1.625-5.28125-1.625l-92.75-14.15625c-.0142.06206-1.7362-.09759-3.3125-.1875-.22519-.01284-.45728-.0061-.6875,0zm-.21875,4.03125c30.95007,3.70397 61.74346,9.12971 92.59375,13.75-7.75266,3.36465-15.63763,6.44361-23.40625,9.78125-2.16109,2.68799-3.47977-.33191-5.4375-1.375-9.43807-4.23734-18.48108,4.67109-21.09375,13.15625-12.83132,6.78825-27.64951,11.75187-41.21875,17.90625-33.28372-5.75993-66.52667-11.75267-99.8125-17.5 13.03097-4.59493 26.21789-8.86037 39.25-13.5 6.36711-1.27099 6.00695-6.09368 7.71875-9.8125 2.90198-7.40618 15.49166-7.49803 17.25.78125 11.49615-4.122 22.45423-9.67215 34.15625-13.1875z"
         fill-rule="evenodd"
         id="path164" />
      <path
         d="m385.12756,151.41183-.4447,66.76823c0,0 4.06391,1.28468 5.59066,1.19457 1.65892-.0979 4.84179-1.53532 4.84179-1.53532l-.8695-67.94754c-1.35006.78349-2.13303,2.2275-4.20906,2.01725l-4.90919-.49719z"
         fill-rule="evenodd"
         id="path166" />
      <path
         d="m384.68704,135.63971 .31556,15.48676c0,0 4.01573.99447 5.39675.84s6.64545-3.0026 6.64545-3.0026l-.87527-13.98003c-1.33195.19643-3.97474,2.41797-5.75928,1.99913l-5.72321-1.34326z"
         fill-rule="evenodd"
         id="path168" />
      <path
         d="m280.14778,117.38236 3.53125,16.53125 2.1875.40625 3.1875,14c45.0586,11.39103 80.93138,33.85991 96.6875,58.375l1.1875-53.65625 .40625.0625v-16.40625l-1.125-.28125-103.28125-18.15625c1e-005,1e-005-1.71844-.0157-2.78125-.875zm35.625,22.46875 32.125,5.9375c-.17593.29644-3.53303,5.90409-5.84375,5.5-2.35378-.41161-20.47635-3.36723-23.5-4.21875-2.80501-.78995-2.81146-5.95958-2.78125-7.21875z"
         fill-rule="evenodd"
         id="path170" />
      <path
         d="m385.34868,151.48804c0,7.68016 1.21995,8.39367 5.65473,8.39367s5.65472-3.41279 5.65473-11.09295c-.16725-.0717-1.0902,1.69626-5.83795,2.97293-3.04042.0154-5.46071-.18937-5.47151-.27365z"
         filter="url(#filter3671)"
         opacity=".4"
         transform="matrix(1,0,0,.80184,-.40438,29.94836)"
         id="path172" />
      <path
         d="m285.29884,133.41991 .30857,1.1999 100.11716,20.93485 .24089-3.9518-100.66662-18.18295z"
         fill-rule="evenodd"
         filter="url(#filter3586)"
         opacity=".5"
         id="path174" />
      <path
         d="m387.67199,89.64452 35.20687,6.83709 40.48448,4.96888 17.28443-7.91204c0,0-84.70384-13.3954-88.61538-13.47368-3.65253-.0731-3.88664.25911-3.88664.25911l-.47376,9.32063z"
         fill-rule="evenodd"
         opacity=".7"
         id="path176" />
      <path
         d="m391.99937,89.45509c-.87047-.06941-1.73859-.12129-3.04201.08464s-2.08236,1.08527-2.08236,1.08527l.1875.96875c0,0 1.35231.18493 2.63411-.01759s2.58749-.32627 3.18067-.27897c1.36764.10905 3.64031.55567 3.64031.55567l25.72292,4.60058-2.07971-1-23.0358-4.82844c0,0-3.56593-1.04555-5.12563-1.16991z"
         fill-rule="evenodd"
         filter="url(#filter3749)"
         opacity=".5"
         id="path178" />
    </g>
    <path
       d="m16.75213,17.6329 .86352,1.02053 8.16422-9.81277c2.80622.34859 19.01487,2.33784 19.15452,3.14008 .12638.72594-8.79223,11.93233-8.79223,11.93233l.0785.94202 1.09903-.157 9.18475-12.32484-.31401-1.33454c-.14477-.61528-15.00547-3.37771-20.72456-3.37559-1.91857.82807-8.71374,9.96977-8.71374,9.96977z"
       fill-opacity=".40357"
       fill-rule="evenodd"
       filter="url(#filter3904)"
       id="path180" />
    <path
       d="m67.36842-6.2834c0,.93016-.75405,1.68421-1.68421,1.68421s-1.68421-.75405-1.68421-1.68421 .75405-1.68421 1.68421-1.68421 1.68421.75405 1.68421,1.68421z"
       fill-opacity=".40357"
       opacity=".7"
       transform="matrix(.6899,0,0,.67067,-8.39676,28.54204)"
       id="path182" />
    <g
       transform="translate(.38866,-.32389)"
       id="g184">
      <path
         d="m16.36347,17.95679 .86352,1.02053 8.16422-9.81277c2.80622.34859 19.01487,2.33784 19.15452,3.14008 .12638.72594-8.79223,11.93233-8.79223,11.93233l.0785.94202 1.09903-.157 9.18475-12.32484-.31401-1.33454c-.14477-.61528-15.00548-3.37771-20.72456-3.37559-1.91858.82807-8.71374,9.96977-8.71374,9.96977z"
         fill-rule="evenodd"
         id="path186" />
      <path
         d="m16.97166,18.13765 7.96761-9.45749"
         fill-rule="evenodd"
         filter="url(#filter3904)"
         stroke="#fff"
         stroke-opacity=".65357"
         stroke-width=".5"
         id="path188" />
      <path
         d="m36.53441,24.61539 8.90688-12.24292"
         fill-rule="evenodd"
         filter="url(#filter3904)"
         stroke="#fff"
         stroke-opacity=".675"
         stroke-width=".5"
         transform="matrix(.87605,0,0,.87605,4.49749,3.08209)"
         id="path190" />
    </g>
    <path
       d="m67.36842-6.2834c0,.93016-.75405,1.68421-1.68421,1.68421s-1.68421-.75405-1.68421-1.68421 .75405-1.68421 1.68421-1.68421 1.68421.75405 1.68421,1.68421z"
       fill-opacity=".40357"
       opacity=".7"
       transform="matrix(.6899,0,0,.67067,-30.06228,24.64866)"
       id="path192" />
    <path
       d="m67.36842-6.2834c0,.93016-.75405,1.68421-1.68421,1.68421s-1.68421-.75405-1.68421-1.68421 .75405-1.68421 1.68421-1.68421 1.68421.75405 1.68421,1.68421z"
       transform="matrix(.48242,0,0,.46897,-16.37117,23.30876)"
       id="path194" />
  </g>
  <g
     transform="matrix(3.6419,0,0,3.6419,.61493,-24.35776)"
     id="g196">
    <g
       transform="matrix(.21615,0,0,.21615,-59.47244,-.26436)"
       id="g198">
      <path
         d="m387.41742,80.00209-32.21919,12.76659c0,0-1.17368-8.95572-11.00509-6.81271-7.2523,1.58082-8.90573,12.63133-10.09662,13.73064l-44.74619,15.71356 2.52859,17.43547 95.93332-42.56506c-.14242.11832.4925-10.6645-.39482-10.26849z"
         fill="url(#linearGradient3233)"
         fill-rule="evenodd"
         id="path200" />
      <path
         d="m388.00986,89.89844-93.22859,41.38656 9.15233,66.3412 84.63657-20.15342-.56031-87.57434zm-18.63484,10.59074-.1875,52.20763-8.40625,3.84375-.009-52.37801 8.60231-3.67337zm-14.15625,5.34247 .34375,53.89641-8.4375,3.875-.0668-54.17766 8.16053-3.59375zm-14.18322,6.9559 .93322,53.34676-9.25,4.5 .64769-54.11944 7.66909-3.72732zm-13.65197,6.06679 .96019,53.90497-8.4375,3.875-1.02269-54.11944 8.5-3.66053z"
         fill="url(#linearGradient3235)"
         fill-rule="evenodd"
         id="path202" />
      <path
         d="m389.7615,79.93711c-.73767.22159-1.45541.48184-2.1875.71875v75.03125l5.875,58.625 85-42.5 4.28125-72.5h.0312l.78125-5.9375-1.5.25c-30.74497-4.61002-61.43646-9.99613-92.28125-13.6875zm33.125,16.8125 23.6875,2.5c1e-005-1e-005-.68022,1.29031-1.65625,2.25-1.51898,1.35995-11.92729,1.51338-19.96875-.4375-1.55918-.99881-2.06251-4.3125-2.0625-4.3125z"
         fill="url(#linearGradient3237)"
         fill-rule="evenodd"
         id="path204" />
      <path
         d="m389.4375,75.59375c-1.61153.04237-3.21875.5-3.21875.5l-29.3125,11.71875c1e-005-2e-006-4.48192-7.86646-14.28125-4.78125-9.36378,2.94808-10.625,13.9375-10.625,13.9375l-50.96875,17.46875c-1e-005,0-1.9466.83445-1.0625,2.1875 .90296,1.38195 3.25,1.40625 3.25,1.40625l103.28125,18.15625c-1e-005,0 3.13451.89118 4.34375.78125s4.09375-1.625 4.09375-1.625l40.03125-16.75c-1e-005,0 2.68188-10.32726 9.53125-13.1875 6.97257-2.91168 10.25,3.65625 10.25,3.65625l35-14.65625c1e-005,3e-006 2.86884-1.47457 1.71875-2.84375-1.09835-1.30759-5.28125-1.625-5.28125-1.625l-92.75-14.15625c-.0142.06206-1.7362-.09759-3.3125-.1875-.22519-.01284-.45728-.0061-.6875,0zm-.21875,4.03125c30.95007,3.70397 61.74346,9.12971 92.59375,13.75-7.75266,3.36465-15.63763,6.44361-23.40625,9.78125-2.16109,2.68799-3.47977-.33191-5.4375-1.375-9.43807-4.23734-18.48108,4.67109-21.09375,13.15625-12.83132,6.78825-27.64951,11.75187-41.21875,17.90625-33.28372-5.75993-66.52667-11.75267-99.8125-17.5 13.03097-4.59493 26.21789-8.86037 39.25-13.5 6.36711-1.27099 6.00695-6.09368 7.71875-9.8125 2.90198-7.40618 15.49166-7.49803 17.25.78125 11.49615-4.122 22.45423-9.67215 34.15625-13.1875z"
         fill="url(#linearGradient3239)"
         fill-rule="evenodd"
         id="path206" />
      <path
         d="m467.35547,115.38068 .72572,54.68474-7.68163,3.80884-.10787.64642 8.41181-3.76849 .5625-.21875-.0312-.5625-.52697-55.32312-1.35231.73286z"
         fill="url(#radialGradient3241)"
         fill-rule="evenodd"
         id="path208" />
      <path
         d="m486.76434,106.02162-92.3125,43.21875-.375,68.90625 86.46875-45.4375 6.21875-66.6875zm-17.71875,9.125-.1875,54.40625-8.40625,3.84375-.375-53.84375 8.96875-4.40625zm-14.15625,6.625 .34375,54.8125-8.4375,3.875-.25-55.09375 8.34375-3.59375zm-14,6.40625 .75,54.8125-9.25,4.5 .28125-55.21875 8.21875-4.09375zm-13.46875,6.25 .59375,55.1875-8.4375,3.875-.65625-55.21875 8.5-3.84375z"
         fill="url(#linearGradient3243)"
         fill-rule="evenodd"
         id="path210" />
      <path
         d="m299.72083,197.79956 85.01313,20.52041 1.46574-66.69133-38.97176-6.68095c0,0-3.53503,6.01493-5.90743,5.60005-2.35377-.41161-20.46889-3.3717-23.49254-4.22322-3.17865-.89518-2.80193-7.71357-2.80193-7.71357l-29.96264-5.30411 14.65743,64.49272z"
         fill="url(#linearGradient3245)"
         fill-rule="evenodd"
         id="path212" />
      <path
         d="m453.79734,121.97653 .72572,54.68474-7.68163,3.80884-.10787.64642 8.41181-3.76849 .5625-.21875-.0312-.5625-.52697-55.32312-1.35231.73286z"
         fill="url(#radialGradient3247)"
         fill-rule="evenodd"
         id="path214" />
      <path
         d="m439.50634,128.57238 .72572,54.68474-7.68163,3.80884-.10787.64642 8.41181-3.76849 .5625-.21875-.0312-.5625-.52697-55.32312-1.35231.73286z"
         fill="url(#radialGradient3249)"
         fill-rule="evenodd"
         id="path216" />
      <path
         d="m426.68108,134.43535 .72572,54.68474-7.68163,3.80884-.10787.64642 8.41181-3.76849 .5625-.21875-.0312-.5625-.52697-55.32312-1.35231.73286z"
         fill="url(#radialGradient3251)"
         fill-rule="evenodd"
         id="path218" />
      <path
         d="m486.06378,106.41181-92.70718,43.07534 .55266,4.71147 91.9743-46.52524 .18022-1.26157z"
         fill="url(#linearGradient3253)"
         fill-rule="evenodd"
         filter="url(#filter3560)"
         opacity=".5"
         id="path220" />
      <path
         d="m489.23165,94.93231-35,14.65625c0,0-3.27744-6.56793-10.25-3.65625-6.84937,2.86024-9.53127,13.1875-9.53125,13.1875l-40.03125,16.75-.0625.0312v13.90625l96-45.4375c1.93045-13.87359 3.43431-13.61282-1.125-9.4375z"
         fill="url(#linearGradient3255)"
         fill-rule="evenodd"
         id="path222" />
      <path
         d="m385.29555,81.36032-1.81377,50.26721 6.99595,1.29555 4.92308-2.07288 .25911-50.2672-6.21862-.51822-4.14575,1.29555z"
         fill="url(#linearGradient3257)"
         fill-rule="evenodd"
         filter="url(#filter3699)"
         opacity=".7"
         id="path224" />
      <path
         d="m387.13867,90.10147-76.43358,33.79492-.0768,3.78644 76.82225-36.90424-.31187-.67713z"
         fill="url(#linearGradient3259)"
         fill-rule="evenodd"
         filter="url(#filter3616)"
         opacity=".7"
         id="path226" />
      <path
         d="m279.41397,116.63803 3.53125,16.53125 103.65625,19.1875v-16.40625l-1.125-.28125-103.28125-18.15625c0,0-1.71844-.0157-2.78125-.875z"
         fill="url(#linearGradient3261)"
         fill-rule="evenodd"
         id="path228" />
      <path
         d="m384.68704,135.63971 .13234,16.58607c0,0 4.7486.81125 6.12962.65678s6.0958-3.91869 6.0958-3.91869l-.87527-13.98003c-1.33195.19643-3.97474,2.41797-5.75928,1.99913l-5.72321-1.34326z"
         fill="url(#linearGradient3263)"
         fill-rule="evenodd"
         id="path230" />
      <path
         d="m385.31078,152.1447-.62792,66.03536c0,0 4.06391,1.28468 5.59066,1.19457 1.65892-.0979 4.84179-1.53532 4.84179-1.53532l-.41146-67.39789c-1.35006.78349-2.12622,2.1434-4.20906,2.01725l-5.18401-.31397z"
         fill="url(#linearGradient3265)"
         fill-rule="evenodd"
         id="path232" />
      <path
         d="m389.4375,75.59375c-1.61153.04237-3.21875.5-3.21875.5l-29.3125,11.71875c1e-005-2e-006-4.48192-7.86646-14.28125-4.78125-9.36378,2.94808-10.625,13.9375-10.625,13.9375l-50.96875,17.46875c-1e-005,0-1.9466.83445-1.0625,2.1875 .90296,1.38195 3.25,1.40625 3.25,1.40625l103.28125,18.15625c-1e-005,0 3.13451.89118 4.34375.78125s4.09375-1.625 4.09375-1.625l40.03125-16.75c-1e-005,0 2.68188-10.32726 9.53125-13.1875 6.97257-2.91168 10.25,3.65625 10.25,3.65625l35-14.65625c1e-005,3e-006 2.86884-1.47457 1.71875-2.84375-1.09835-1.30759-5.28125-1.625-5.28125-1.625l-92.75-14.15625c-.0142.06206-1.7362-.09759-3.3125-.1875-.22519-.01284-.45728-.0061-.6875,0zm-.21875,4.03125c30.95007,3.70397 61.74346,9.12971 92.59375,13.75-7.75266,3.36465-15.63763,6.44361-23.40625,9.78125-2.16109,2.68799-3.47977-.33191-5.4375-1.375-9.43807-4.23734-18.48108,4.67109-21.09375,13.15625-12.83132,6.78825-27.64951,11.75187-41.21875,17.90625-33.28372-5.75993-66.52667-11.75267-99.8125-17.5 13.03097-4.59493 26.21789-8.86037 39.25-13.5 6.36711-1.27099 6.00695-6.09368 7.71875-9.8125 2.90198-7.40618 15.49166-7.49803 17.25.78125 11.49615-4.122 22.45423-9.67215 34.15625-13.1875z"
         fill="url(#linearGradient3267)"
         fill-rule="evenodd"
         id="path234" />
      <path
         d="m385.12756,151.41183-.4447,66.76823c0,0 4.06391,1.28468 5.59066,1.19457 1.65892-.0979 4.84179-1.53532 4.84179-1.53532l-.8695-67.94754c-1.35006.78349-2.13303,2.2275-4.20906,2.01725l-4.90919-.49719z"
         fill="url(#linearGradient3269)"
         fill-rule="evenodd"
         id="path236" />
      <path
         d="m384.68704,135.63971 .31556,15.48676c0,0 4.01573.99447 5.39675.84s6.64545-3.0026 6.64545-3.0026l-.87527-13.98003c-1.33195.19643-3.97474,2.41797-5.75928,1.99913l-5.72321-1.34326z"
         fill="url(#linearGradient3271)"
         fill-rule="evenodd"
         id="path238" />
      <path
         d="m280.14778,117.38236 3.53125,16.53125 2.1875.40625 3.1875,14c45.0586,11.39103 80.93138,33.85991 96.6875,58.375l1.1875-53.65625 .40625.0625v-16.40625l-1.125-.28125-103.28125-18.15625c1e-005,1e-005-1.71844-.0157-2.78125-.875zm35.625,22.46875 32.125,5.9375c-.17593.29644-3.53303,5.90409-5.84375,5.5-2.35378-.41161-20.47635-3.36723-23.5-4.21875-2.80501-.78995-2.81146-5.95958-2.78125-7.21875z"
         fill="url(#linearGradient3273)"
         fill-rule="evenodd"
         id="path240" />
      <path
         d="m385.34868,151.48804c0,7.68016 1.21995,8.39367 5.65473,8.39367s5.65472-3.41279 5.65473-11.09295c-.16725-.0717-1.0902,1.69626-5.83795,2.97293-3.04042.0154-5.46071-.18937-5.47151-.27365z"
         fill="#2e3436"
         filter="url(#filter3671)"
         opacity=".4"
         transform="matrix(1,0,0,.80184,-.40438,29.94836)"
         id="path242" />
      <path
         d="m285.29884,133.41991 .30857,1.1999 100.11716,20.93485 .24089-3.9518-100.66662-18.18295z"
         fill="url(#linearGradient3275)"
         fill-rule="evenodd"
         filter="url(#filter3586)"
         opacity=".5"
         id="path244" />
      <path
         d="m387.67199,89.64452 35.20687,6.83709 40.48448,4.96888 17.28443-7.91204c0,0-84.70384-13.3954-88.61538-13.47368-3.65253-.0731-3.88664.25911-3.88664.25911l-.47376,9.32063z"
         fill="url(#linearGradient3277)"
         fill-rule="evenodd"
         opacity=".7"
         id="path246" />
      <path
         d="m391.99937,89.45509c-.87047-.06941-1.73859-.12129-3.04201.08464s-2.08236,1.08527-2.08236,1.08527l.1875.96875c0,0 1.35231.18493 2.63411-.01759s2.58749-.32627 3.18067-.27897c1.36764.10905 3.64031.55567 3.64031.55567l25.72292,4.60058-2.07971-1-23.0358-4.82844c0,0-3.56593-1.04555-5.12563-1.16991z"
         fill="url(#linearGradient3279)"
         fill-rule="evenodd"
         filter="url(#filter3749)"
         opacity=".5"
         id="path248" />
    </g>
    <path
       d="m16.75213,17.6329 .86352,1.02053 8.16422-9.81277c2.80622.34859 19.01487,2.33784 19.15452,3.14008 .12638.72594-8.79223,11.93233-8.79223,11.93233l.0785.94202 1.09903-.157 9.18475-12.32484-.31401-1.33454c-.14477-.61528-15.00547-3.37771-20.72456-3.37559-1.91857.82807-8.71374,9.96977-8.71374,9.96977z"
       fill-opacity=".40357"
       fill-rule="evenodd"
       filter="url(#filter3904)"
       id="path250" />
    <path
       d="m67.36842-6.2834c0,.93016-.75405,1.68421-1.68421,1.68421s-1.68421-.75405-1.68421-1.68421 .75405-1.68421 1.68421-1.68421 1.68421.75405 1.68421,1.68421z"
       fill-opacity=".40357"
       opacity=".7"
       transform="matrix(.6899,0,0,.67067,-8.39676,28.54204)"
       id="path252" />
    <g
       transform="translate(.38866,-.32389)"
       id="g254">
      <path
         d="m16.36347,17.95679 .86352,1.02053 8.16422-9.81277c2.80622.34859 19.01487,2.33784 19.15452,3.14008 .12638.72594-8.79223,11.93233-8.79223,11.93233l.0785.94202 1.09903-.157 9.18475-12.32484-.31401-1.33454c-.14477-.61528-15.00548-3.37771-20.72456-3.37559-1.91858.82807-8.71374,9.96977-8.71374,9.96977z"
         fill="url(#linearGradient3281)"
         fill-rule="evenodd"
         id="path256" />
      <path
         d="m16.97166,18.13765 7.96761-9.45749"
         fill="none"
         filter="url(#filter3904)"
         stroke="#fff"
         stroke-opacity=".65357"
         stroke-width=".5"
         id="path258" />
      <path
         d="m36.53441,24.61539 8.90688-12.24292"
         fill="none"
         filter="url(#filter3904)"
         stroke="#fff"
         stroke-opacity=".675"
         stroke-width=".5"
         transform="matrix(.87605,0,0,.87605,4.49749,3.08209)"
         id="path260" />
    </g>
    <path
       d="m67.36842-6.2834c0,.93016-.75405,1.68421-1.68421,1.68421s-1.68421-.75405-1.68421-1.68421 .75405-1.68421 1.68421-1.68421 1.68421.75405 1.68421,1.68421z"
       fill-opacity=".40357"
       opacity=".7"
       transform="matrix(.6899,0,0,.67067,-30.06228,24.64866)"
       id="path262" />
    <path
       d="m67.36842-6.2834c0,.93016-.75405,1.68421-1.68421,1.68421s-1.68421-.75405-1.68421-1.68421 .75405-1.68421 1.68421-1.68421 1.68421.75405 1.68421,1.68421z"
       fill="url(#radialGradient3283)"
       transform="matrix(.48242,0,0,.46897,-16.37117,23.30876)"
       id="path264" />
  </g>
</svg>
