<?xml version="1.0" encoding="UTF-8" standalone="no"?>
<svg
   xmlns:dc="http://purl.org/dc/elements/1.1/"
   xmlns:cc="http://creativecommons.org/ns#"
   xmlns:rdf="http://www.w3.org/1999/02/22-rdf-syntax-ns#"
   xmlns:svg="http://www.w3.org/2000/svg"
   xmlns="http://www.w3.org/2000/svg"
   xmlns:xlink="http://www.w3.org/1999/xlink"
   xmlns:sodipodi="http://sodipodi.sourceforge.net/DTD/sodipodi-0.dtd"
   xmlns:inkscape="http://www.inkscape.org/namespaces/inkscape"
   viewBox="0 0 50.679489 33.47731"
   id="svg4977"
   version="1.1"
   inkscape:version="0.91 r13725"
   sodipodi:docname="identity.svg"
   width="50.679489"
   height="33.47731">
  <metadata
     id="metadata5103">
    <rdf:RDF>
      <cc:Work
         rdf:about="">
        <dc:format>image/svg+xml</dc:format>
        <dc:type
           rdf:resource="http://purl.org/dc/dcmitype/StillImage" />
        <dc:title></dc:title>
      </cc:Work>
    </rdf:RDF>
  </metadata>
  <sodipodi:namedview
     pagecolor="#ffffff"
     bordercolor="#666666"
     borderopacity="1"
     objecttolerance="10"
     gridtolerance="10"
     guidetolerance="10"
     inkscape:pageopacity="0"
     inkscape:pageshadow="2"
     inkscape:window-width="1440"
     inkscape:window-height="848"
     id="namedview5101"
     showgrid="false"
     fit-margin-top="0"
     fit-margin-left="0"
     fit-margin-right="0"
     fit-margin-bottom="0"
     inkscape:zoom="9.8333334"
     inkscape:cx="22.792723"
     inkscape:cy="25.535273"
     inkscape:window-x="0"
     inkscape:window-y="52"
     inkscape:window-maximized="0"
     inkscape:current-layer="svg4977" />
  <defs
     id="defs4979">
    <linearGradient
       id="linearGradient5060">
      <stop
         offset="0"
         id="stop4982" />
      <stop
         offset="1"
         stop-opacity="0"
         id="stop4984" />
    </linearGradient>
    <linearGradient
       gradientUnits="userSpaceOnUse"
       id="linearGradient5027"
       x2="0"
       y1="-150.69685"
       y2="327.6604">
      <stop
         offset="0"
         stop-opacity="0"
         id="stop4987" />
      <stop
         offset=".5"
         id="stop4989" />
      <stop
         offset="1"
         stop-opacity="0"
         id="stop4991" />
    </linearGradient>
    <linearGradient
       gradientTransform="matrix(1.10783,0,0,1,-1.1100768,-8.5)"
       gradientUnits="userSpaceOnUse"
       id="linearGradient6738"
       x1="16.25"
       x2="31.5"
       y1="12.25"
       y2="36.625">
      <stop
         offset="0"
         stop-color="#fff"
         id="stop4994" />
      <stop
         offset="1"
         stop-color="#ddd"
         id="stop4996" />
    </linearGradient>
    <linearGradient
       gradientUnits="userSpaceOnUse"
       id="linearGradient6954"
       x2="0"
       y1="29.22382"
       y2="35.47382">
      <stop
         offset="0"
         stop-color="#fff"
         id="stop4999" />
      <stop
         offset="1"
         stop-color="#c9c9c9"
         id="stop5001" />
    </linearGradient>
    <linearGradient
       gradientUnits="userSpaceOnUse"
       id="linearGradient6956"
       x1="26.504271"
       x2="28.364229"
       xlink:href="#linearGradient5060"
       y1="35.819832"
       y2="36.569832"
       gradientTransform="matrix(0.4348,0,0,0.4348,-3.3545568,0.44145)" />
    <linearGradient
       gradientTransform="matrix(-0.42509961,0.09134278,0.09134278,0.42509961,23.41524,-1.4926839)"
       gradientUnits="userSpaceOnUse"
       id="linearGradient6958"
       x1="22.686769"
       x2="21.408461"
       xlink:href="#linearGradient5060"
       y1="36.3904"
       y2="35.739632" />
    <radialGradient
       cx="55"
       cy="125"
       gradientUnits="userSpaceOnUse"
       id="radialGradient278"
       r="14.375">
      <stop
         offset="0"
         stop-color="#fff"
         id="stop5006" />
      <stop
         offset=".5"
         stop-color="#fff520"
         stop-opacity=".89109"
         id="stop5008" />
      <stop
         offset="1"
         stop-color="#fff300"
         stop-opacity="0"
         id="stop5010" />
    </radialGradient>
    <radialGradient
       cx="16.214741"
       cy="19.83647"
       gradientTransform="matrix(0.4348,0,0,0.29649882,5.2380956,6.9217526)"
       gradientUnits="userSpaceOnUse"
       id="radialGradient6948"
       r="13.56536">
      <stop
         offset="0"
         stop-color="#727e0a"
         id="stop5013" />
      <stop
         offset="1"
         stop-color="#5b6508"
         id="stop5015" />
    </radialGradient>
    <radialGradient
       cx="29.344931"
       cy="17.064079"
       gradientTransform="matrix(0.3426224,0,0,0.3426224,2.2363234,1.871055)"
       gradientUnits="userSpaceOnUse"
       id="radialGradient6952"
       r="9.1620598">
      <stop
         offset="0"
         stop-color="#e9b15e"
         id="stop5018" />
      <stop
         offset="1"
         stop-color="#966416"
         id="stop5020" />
    </radialGradient>
    <radialGradient
       cx="605.71429"
       cy="486.64789"
       gradientTransform="matrix(-2.77439,0,0,1.96971,112.7623,-872.8854)"
       gradientUnits="userSpaceOnUse"
       id="radialGradient5031"
       r="117.14286"
       xlink:href="#linearGradient5060" />
    <radialGradient
       cx="605.71429"
       cy="486.64789"
       gradientTransform="matrix(2.77439,0,0,1.96971,-1891.633,-872.8854)"
       gradientUnits="userSpaceOnUse"
       id="radialGradient5029"
       r="117.14286"
       xlink:href="#linearGradient5060" />
    <radialGradient
       cx="31.1127"
       cy="19.008619"
       gradientUnits="userSpaceOnUse"
       id="radialGradient6950"
       r="8.6620598"
       xlink:href="#linearGradient5060"
       gradientTransform="matrix(0.4348,0,0,0.4348,-0.52300444,1.8199095)" />
    <filter
       id="filter4523">
      <feGaussianBlur
         id="feGaussianBlur5236"
         stdDeviation="2.6678" />
    </filter>
    <filter
       id="filter4539">
      <feGaussianBlur
         id="feGaussianBlur5239"
         stdDeviation="2.1943" />
    </filter>
    <linearGradient
       id="linearGradient3947">
      <stop
         id="stop5242"
         stop-color="#60574e"
         offset="0" />
      <stop
         id="stop5244"
         stop-color="#40423f"
         offset="1" />
    </linearGradient>
    <linearGradient
       y2="454.76266"
       y1="520.38397"
       x2="953.55164"
       x1="903.85785"
       id="linearGradient3923"
       gradientUnits="userSpaceOnUse"
       gradientTransform="matrix(0.11475624,0,0,0.11475624,-62.777816,-47.00701)"
       xlink:href="#linearGradient3934">
      <stop
         id="stop5247"
         stop-color="#787973"
         offset="0" />
      <stop
         id="stop5249"
         stop-opacity="0"
         stop-color="#787973"
         offset="1" />
    </linearGradient>
    <linearGradient
       y2="516.04492"
       y1="562.89667"
       x2="903.3576"
       x1="880.15698"
       id="linearGradient3934"
       gradientUnits="userSpaceOnUse"
       gradientTransform="matrix(0.11475624,0,0,0.11475624,-63.545589,-43.717713)">
      <stop
         id="stop5252"
         stop-color="#919a9a"
         offset="0" />
      <stop
         id="stop5254"
         stop-color="#a3a49f"
         offset="1" />
    </linearGradient>
    <linearGradient
       y2="541.4082"
       y1="627.41669"
       x2="907.68048"
       x1="1054.8505"
       id="linearGradient3936"
       gradientUnits="userSpaceOnUse"
       gradientTransform="matrix(0.11475624,0,0,0.11475624,-62.777816,-47.00701)">
      <stop
         id="stop5257"
         stop-color="#26383f"
         offset="0" />
      <stop
         id="stop5259"
         stop-color="#485d60"
         offset="1" />
    </linearGradient>
    <linearGradient
       y2="648.35187"
       y1="547.57971"
       x2="1064.8191"
       x1="864.0542"
       id="linearGradient4025"
       gradientUnits="userSpaceOnUse"
       gradientTransform="matrix(0.11475624,0,0,0.11475624,-62.777816,-47.00701)">
      <stop
         id="stop5262"
         stop-color="#2b3439"
         offset="0" />
      <stop
         id="stop5264"
         stop-opacity="0"
         stop-color="#2b3439"
         offset="1" />
    </linearGradient>
    <linearGradient
       y2="354.10092"
       y1="450.94006"
       x2="210.2429"
       x1="161.82332"
       id="linearGradient4537"
       gradientUnits="userSpaceOnUse">
      <stop
         id="stop5267"
         stop-color="#f00"
         offset="0" />
      <stop
         id="stop5269"
         stop-opacity="0"
         stop-color="#f00"
         offset="1" />
    </linearGradient>
    <radialGradient
       r="163.29782"
       id="radialGradient3893"
       gradientUnits="userSpaceOnUse"
       gradientTransform="matrix(0.81681,0,0,0.63065,545.64405,276.04676)"
       cy="300.82437"
       cx="505.70786">
      <stop
         id="stop5272"
         stop-color="#55504a"
         offset="0" />
      <stop
         id="stop5274"
         stop-color="#2f3b39"
         offset="1" />
    </radialGradient>
    <radialGradient
       r="31.889851"
       id="radialGradient3991"
       gradientUnits="userSpaceOnUse"
       gradientTransform="matrix(0.28676093,3.8448634e-7,-3.2393824e-7,0.24160205,-253.309,-114.15009)"
       cy="548.19214"
       cx="1103.2467"
       xlink:href="#radialGradient3893">
      <stop
         id="stop5277"
         stop-color="#aeaaa7"
         offset="0" />
      <stop
         id="stop5279"
         stop-color="#112325"
         offset=".2345" />
      <stop
         id="stop5281"
         stop-color="#01040d"
         offset="1" />
    </radialGradient>
    <radialGradient
       xlink:href="#linearGradient3934"
       r="49.737411"
       id="radialGradient3953"
       gradientUnits="userSpaceOnUse"
       gradientTransform="matrix(0.12357755,-0.03311291,0.02303617,0.08597078,-83.673976,5.0243532)"
       cy="469.40903"
       cx="1143.0392" />
    <radialGradient
       xlink:href="#linearGradient3934"
       r="163.29782"
       id="radialGradient4002"
       gradientUnits="userSpaceOnUse"
       gradientTransform="matrix(0.09373404,0,0,0.07237102,-0.16175637,-15.328922)"
       cy="241.22079"
       cx="646.10516" />
  </defs>
  <g
     transform="matrix(0.02495993,0,0,0.01485743,47.539993,28.60912)"
     id="g5025">
    <path
       d="m -1559.2523,-150.69685 1339.6335,0 0,478.35718 -1339.6335,0 z"
       id="path5027"
       inkscape:connector-curvature="0"
       style="opacity:0.40206;fill:url(#linearGradient5027)" />
    <path
       d="m -219.61876,-150.68038 0,478.33079 c 142.87417,0.90045 345.40022,-107.16966 345.40014,-239.19618 -8e-5,-132.02652 -159.43682,-239.13459 -345.40014,-239.13462 z"
       id="path5029"
       inkscape:connector-curvature="0"
       style="opacity:0.40206;fill:url(#radialGradient5029)" />
    <path
       d="m -1559.2523,-150.68038 0,478.33079 c -142.8742,0.90045 -345.4002,-107.16966 -345.4002,-239.19618 0,-132.02652 159.4368,-239.13459 345.4002,-239.13462 z"
       id="path5031"
       inkscape:connector-curvature="0"
       style="opacity:0.40206;fill:url(#radialGradient5031)" />
  </g>
  <path
     d="m 6.0712332,0.5 38.3976798,0 a 2.75,2.75 0 0 1 2.75,2.75 l 0,24.5 a 2.75,2.75 0 0 1 -2.75,2.75 l -38.3976798,0 a 2.75,2.75 0 0 1 -2.75,-2.75 l 0,-24.5 a 2.75,2.75 0 0 1 2.75,-2.75"
     id="path5033"
     inkscape:connector-curvature="0"
     style="fill:url(#linearGradient6738);fill-rule:evenodd;stroke:#939393" />
  <path
     d="m 6.0655132,1.62933 38.4009198,0 a 1.75,1.75 0 0 1 1.75,1.75 l 0,24.24136 a 1.75,1.75 0 0 1 -1.75,1.75 l -38.4009198,0 a 1.75,1.75 0 0 1 -1.75,-1.75 l 0,-24.24136 a 1.75,1.75 0 0 1 1.75,-1.75"
     id="path5035"
     inkscape:connector-curvature="0"
     style="fill:none;stroke:#ffffff" />
  <path
     style="fill:url(#radialGradient6948);fill-rule:evenodd;stroke:#404604;stroke-width:1.00000095;stroke-linecap:round;stroke-linejoin:round"
     inkscape:connector-curvature="0"
     id="path5039"
     d="m 10.830137,18.40146 4.611749,0 c 1.306661,0 2.600313,-0.479119 3.074501,-1.8447 0.450297,-1.296782 0.07686,-3.766263 -2.843913,-5.764687 l -5.45724,0 c -2.9207736,1.8447 -3.2857795,4.367492 -2.6133265,5.841551 0.6850666,1.501708 1.8446999,1.76784 3.2282245,1.76784 z" />
  <path
     style="fill:#9db029;fill-rule:evenodd"
     inkscape:connector-curvature="0"
     id="path5041"
     d="m 13.03509,11.945011 c 0,0 -0.935394,0.721911 -0.854812,1.591598 -0.887527,-0.782984 -0.913024,-2.283361 -0.913024,-2.283361 l 1.767836,0.691763 z" />
  <path
     style="opacity:0.21518997;fill:none;stroke:#ffffff;stroke-width:0.99999654;stroke-linecap:round;stroke-linejoin:round"
     inkscape:connector-curvature="0"
     id="path5043"
     d="m 11.085673,17.608459 4.042375,0 c 1.034319,0 2.058343,-0.379259 2.433697,-1.460219 0.356445,-1.026498 -0.03712,-2.981281 -2.349129,-4.563183 l -4.515728,0 c -2.3120144,1.460219 -2.6988994,3.457199 -2.1665999,4.624024 0.5422826,1.188717 1.4602193,1.399378 2.5553809,1.399378 z" />
  <path
     style="fill:#9db029;fill-rule:evenodd"
     inkscape:connector-curvature="0"
     id="path5045"
     d="m 13.460511,11.945011 c 0,0 0.935394,0.721911 0.854813,1.591598 0.887527,-0.782984 0.913023,-2.283361 0.913023,-2.283361 l -1.767836,0.691763 z" />
  <path
     style="fill:url(#radialGradient6950);fill-rule:evenodd"
     inkscape:connector-curvature="0"
     id="path5047"
     d="m 16.771057,10.084858 a 3.7662637,3.7662637 0 1 1 -7.5325231,0 3.7662637,3.7662637 0 1 1 7.5325231,0 z" />
  <path
     style="fill:url(#radialGradient6952);fill-rule:evenodd;stroke:#6f4709;stroke-width:1.00000095;stroke-linecap:round;stroke-linejoin:round"
     inkscape:connector-curvature="0"
     id="path5049"
     d="m 16.825407,8.5630576 a 3.7662637,3.7662637 0 1 1 -7.5325231,0 3.7662637,3.7662637 0 1 1 7.5325231,0 z" />
  <path
     style="opacity:0.12658003;fill:none;stroke:#ffffff;stroke-width:1.00000525;stroke-linecap:round;stroke-linejoin:round"
     inkscape:connector-curvature="0"
     id="path5051"
     d="m 15.874026,8.5630886 a 2.8148301,2.8148301 0 1 1 -5.629657,0 2.8148301,2.8148301 0 1 1 5.629657,0 z" />
  <path
     style="opacity:0.22784998;fill:url(#linearGradient6956);fill-rule:evenodd"
     inkscape:connector-curvature="0"
     id="path5055"
     d="m 8.9547486,17.951751 c -0.5424608,-0.236953 -0.7852445,-0.80798 -0.7852445,-0.80798 0.3657886,-1.769262 1.6174213,-3.063697 1.6174213,-3.063697 0,0 -0.9910484,2.787725 -0.8321768,3.871672 z" />
  <path
     style="opacity:0.22784998;fill:url(#linearGradient6958);fill-rule:evenodd"
     inkscape:connector-curvature="0"
     id="path5057"
     d="m 17.174951,17.57854 c 0.535348,-0.25261 0.784545,-0.870609 0.784545,-0.870609 -0.417026,-1.757887 -1.72883,-2.975258 -1.72883,-2.975258 0,0 1.071603,2.757763 0.944285,3.845867 z" />
  <path
     d="m 22.799023,11.97785 15.3125,0 a 1.03125,1 0 0 1 1.03125,1 1.03125,1 0 0 1 -1.03125,1 l -15.3125,0 a 1.03125,1 0 0 1 -1.03125,-1 1.03125,1 0 0 1 1.03125,-1"
     id="path5061"
     inkscape:connector-curvature="0"
     style="opacity:0.39766002;fill:#8d8d8d;fill-rule:evenodd" />
  <path
     d="m 22.799023,15 11.9375,0 a 1.03125,1 0 0 1 1.03125,1 1.03125,1 0 0 1 -1.03125,1 l -11.9375,0 a 1.03125,1 0 0 1 -1.03125,-1 1.03125,1 0 0 1 1.03125,-1"
     id="path5063"
     inkscape:connector-curvature="0"
     style="opacity:0.39766002;fill:#8d8d8d;fill-rule:evenodd" />
  <g
     transform="matrix(1,0,0,0.83333,0.76777314,-3)"
     id="g5065"
     style="opacity:0.48537999">
    <path
       d="m 6,30 1,0 0,6 -1,0 z"
       id="path5067"
       inkscape:connector-curvature="0"
       style="fill-rule:evenodd" />
    <path
       d="m 8.08465,30 1.9375,0 0,3.60001 -1.9375,0 z"
       id="path5069"
       inkscape:connector-curvature="0"
       style="fill-rule:evenodd" />
    <path
       d="m 11,30 1,0 0,3.60001 -1,0 z"
       id="path5071"
       inkscape:connector-curvature="0"
       style="fill-rule:evenodd" />
    <path
       d="m 13,30 2,0 0,3.60001 -2,0 z"
       id="path5073"
       inkscape:connector-curvature="0"
       style="fill-rule:evenodd" />
    <path
       d="m 16,30 1,0 0,3.60001 -1,0 z"
       id="path5075"
       inkscape:connector-curvature="0"
       style="fill-rule:evenodd" />
    <path
       d="m 18,30 1,0 0,3.60001 -1,0 z"
       id="path5077"
       inkscape:connector-curvature="0"
       style="fill-rule:evenodd" />
    <path
       d="m 21,30 1,0 0,3.60001 -1,0 z"
       id="path5079"
       inkscape:connector-curvature="0"
       style="fill-rule:evenodd" />
    <path
       d="m 23,30 2,0 0,3.60001 -2,0 z"
       id="path5081"
       inkscape:connector-curvature="0"
       style="fill-rule:evenodd" />
    <path
       d="m 26,30 2,0 0,3.60001 -2,0 z"
       id="path5083"
       inkscape:connector-curvature="0"
       style="fill-rule:evenodd" />
    <path
       d="m 29,30 1,0 0,3.60001 -1,0 z"
       id="path5085"
       inkscape:connector-curvature="0"
       style="fill-rule:evenodd" />
    <path
       d="m 31,30 1,0 0,3.60001 -1,0 z"
       id="path5087"
       inkscape:connector-curvature="0"
       style="fill-rule:evenodd" />
    <path
       d="m 33,30 1,0 0,3.60001 -1,0 z"
       id="path5089"
       inkscape:connector-curvature="0"
       style="fill-rule:evenodd" />
    <path
       d="m 35,30 2,0 0,3.60001 -2,0 z"
       id="path5091"
       inkscape:connector-curvature="0"
       style="fill-rule:evenodd" />
    <path
       d="m 39,30 2,0 0,3.60001 -2,0 z"
       id="path5093"
       inkscape:connector-curvature="0"
       style="fill-rule:evenodd" />
    <path
       d="m 42,30 1,0 0,6 -1,0 z"
       id="path5095"
       inkscape:connector-curvature="0"
       style="fill-rule:evenodd" />
  </g>
  <path
     d="m 9.7052632,26.3982 c 0.07496,0.01603 0.13338,0.04937 0.17525,0.10003 0.04187,0.05066 0.06359,0.11322 0.06359,0.18766 0,0.11425 -0.03929,0.20265 -0.11787,0.2652 -0.07858,0.06255 -0.19024,0.09383 -0.33499,0.09383 -0.0486,0 -0.09874,-0.0049 -0.15044,-0.01473 -0.0517,-0.0098 -0.10417,-0.02352 -0.15897,-0.04265 l 0,-0.15121 c 0.04343,0.02533 0.09099,0.04446 0.14268,0.05738 0.05169,0.01292 0.10572,0.01939 0.16207,0.01939 0.09822,0 0.17292,-0.01939 0.2241,-0.05816 0.05118,-0.03877 0.07754,-0.09512 0.07755,-0.16905 10e-6,-0.07393 -0.02404,-0.12149 -0.07212,-0.15974 -0.04808,-0.03825 -0.11399,-0.05816 -0.19929,-0.05816 l -0.13493,0 0,-0.12872 0.14113,0 c 0.07703,0 0.13596,-0.01525 0.1768,-0.04575 0.04084,-0.0305 0.06126,-0.07548 0.06126,-0.13338 0,-0.0579 -0.0212,-0.10494 -0.06359,-0.13648 -0.04239,-0.03154 -0.1021,-0.04808 -0.18068,-0.04808 -0.04291,0 -0.08892,0.0046 -0.13803,0.01396 -0.04911,0.0093 -0.10314,0.02378 -0.16207,0.04343 l 0,-0.13958 c 0.05945,-0.01654 0.11502,-0.02895 0.16672,-0.03722 0.0517,-0.0083 0.10132,-0.01241 0.14734,-0.01241 0.1189,0 0.21299,0.02714 0.28226,0.08142 0.06927,0.05428 0.10391,0.12666 0.10391,0.21868 0,0.0641 -0.01835,0.11839 -0.05506,0.16284 -0.03671,0.04445 -0.08892,0.07444 -0.15664,0.0915 m 0.6715398,0.49241 0.54669,0 0,0.13183 -0.73513,0 0,-0.13183 0.24272,-0.24737 c 0.10288,-0.10391 0.1675,-0.17086 0.19386,-0.20084 0.05015,-0.05635 0.08504,-0.10391 0.10469,-0.14268 0.01965,-0.03877 0.03024,-0.0778 0.03024,-0.11554 0,-0.06152 -0.02171,-0.11166 -0.06514,-0.15044 -0.04343,-0.03878 -0.099,-0.05816 -0.16827,-0.05816 -0.04911,0 -0.10107,0.0085 -0.15587,0.02559 -0.0548,0.01706 -0.11244,0.04291 -0.17448,0.07755 l 0,-0.15819 c 0.06307,-0.02533 0.122,-0.04446 0.1768,-0.05738 0.0548,-0.01292 0.10494,-0.01938 0.15044,-0.01939 0.11994,0 0.21557,0.02999 0.28692,0.08995 0.07135,0.05996 0.10701,0.1401 0.10701,0.24039 0,0.04756 -0.0091,0.0928 -0.02714,0.1357 -0.01809,0.0429 -0.04989,0.09254 -0.09693,0.15044 l -0.1233,0.13028 -0.29312,0.3001 m 1.30663,-0.88944 -0.39548,0.61803 0.39548,0 0,-0.61803 m -0.0411,-0.13648 0.19696,0 0,0.75451 0.16517,0 0,0.13028 -0.16517,0 0,0.27296 -0.15587,0 0,-0.27296 -0.52265,0 0,-0.15121 0.48155,-0.73358 m 0.62346,0 0.61493,0 0,0.13183 -0.47147,0 0,0.28382 0.06824,-0.01706 c 0.02275,-0.0041 0.04549,-0.0062 0.06824,-0.0062 0.12924,0 0.2316,0.03541 0.30708,0.10624 0.07548,0.07083 0.11322,0.16672 0.11322,0.28769 0,0.12097 -0.03877,0.22152 -0.11632,0.29079 -0.07755,0.06927 -0.18688,0.10314 -0.32802,0.10314 -0.0486,0 -0.09822,-0.0041 -0.14889,-0.01241 l -0.15587,-0.03722 0,-0.15742 c 0.04653,0.02533 0.0946,0.0442 0.14423,0.05661 0.04963,0.01241 0.1021,0.01861 0.15742,0.01861 0.08943,0 0.16026,-0.02352 0.21247,-0.07057 0.05221,-0.04705 0.07832,-0.11089 0.07832,-0.19154 0,-0.08065 -0.02611,-0.14449 -0.07832,-0.19154 -0.05221,-0.04705 -0.12304,-0.07057 -0.21247,-0.07057 -0.04187,0 -0.08375,0.0046 -0.12562,0.01396 -0.04187,0.0093 -0.08375,0.02378 -0.12717,0.04342 l 0,-0.58159 m 1.85022,0.10313 c -0.08065,0 -0.14139,0.03981 -0.18223,0.11942 -0.04084,0.07961 -0.06049,0.19826 -0.06049,0.35748 0,0.15922 0.02016,0.27787 0.06049,0.35748 0.04033,0.07961 0.10158,0.11864 0.18223,0.11864 0.08065,0 0.14191,-0.03955 0.18223,-0.11864 0.04032,-0.07909 0.06126,-0.19877 0.06126,-0.35748 0,-0.15871 -0.02042,-0.27839 -0.06126,-0.35748 -0.04084,-0.07909 -0.10107,-0.11942 -0.18223,-0.11942 m 0,-0.12407 c 0.12976,0 0.22876,0.05144 0.297,0.15431 0.06824,0.10287 0.10313,0.25125 0.10313,0.44666 0,0.1949 -0.03438,0.34378 -0.10313,0.44666 -0.06875,0.10288 -0.16724,0.15354 -0.297,0.15354 -0.12976,0 -0.22902,-0.05118 -0.29777,-0.15354 -0.06875,-0.10236 -0.10236,-0.25176 -0.10236,-0.44666 0,-0.19541 0.03412,-0.3443 0.10236,-0.44666 0.06824,-0.10236 0.16801,-0.15431 0.29777,-0.15431 m 0.67774,0.02094 0.61493,0 0,0.13183 -0.47147,0 0,0.28382 0.06824,-0.01706 c 0.02275,-0.0041 0.04549,-0.0062 0.06824,-0.0062 0.12924,0 0.2316,0.03541 0.30708,0.10624 0.07548,0.07083 0.11322,0.16672 0.11322,0.28769 0,0.12097 -0.03877,0.22152 -0.11632,0.29079 -0.07755,0.06927 -0.18688,0.10314 -0.32802,0.10314 -0.04859,0 -0.09822,-0.0041 -0.14889,-0.01241 l -0.15587,-0.03722 0,-0.15742 c 0.04653,0.02533 0.0946,0.0442 0.14423,0.05661 0.04963,0.01241 0.1021,0.01861 0.15742,0.01861 0.08943,0 0.16026,-0.02352 0.21247,-0.07057 0.05221,-0.04705 0.07832,-0.11089 0.07832,-0.19154 0,-0.08065 -0.02611,-0.14449 -0.07832,-0.19154 -0.05221,-0.04705 -0.12304,-0.07057 -0.21247,-0.07057 -0.04188,0 -0.08375,0.0046 -0.12562,0.01396 -0.04187,0.0093 -0.08375,0.02378 -0.12717,0.04342 l 0,-0.58159 m 1.01119,0 0.61493,0 0,0.13183 -0.47147,0 0,0.28382 0.06824,-0.01706 c 0.02275,-0.0041 0.04549,-0.0062 0.06824,-0.0062 0.12924,0 0.2316,0.03541 0.30708,0.10624 0.07548,0.07083 0.11321,0.16672 0.11322,0.28769 10e-6,0.12097 -0.03877,0.22152 -0.11632,0.29079 -0.07755,0.06927 -0.18688,0.10314 -0.32802,0.10314 -0.04859,0 -0.09822,-0.0041 -0.14889,-0.01241 l -0.15587,-0.03722 0,-0.15742 c 0.04653,0.02533 0.0946,0.0442 0.14423,0.05661 0.04963,0.01241 0.1021,0.01861 0.15742,0.01861 0.08943,0 0.16026,-0.02352 0.21247,-0.07057 0.05221,-0.04705 0.07832,-0.11089 0.07832,-0.19154 0,-0.08065 -0.02611,-0.14449 -0.07832,-0.19154 -0.05221,-0.04705 -0.12304,-0.07057 -0.21247,-0.07057 -0.04188,0 -0.08375,0.0046 -0.12562,0.01396 -0.04187,0.0093 -0.08375,0.02378 -0.12717,0.04342 l 0,-0.58159 m 0.97009,0 0.74443,0 0,0.06669 -0.42029,1.09106 -0.16362,0 0.39548,-1.02592 -0.556,0 0,-0.13183 m 1.55788,0 0.61493,0 0,0.13183 -0.47147,0 0,0.28382 0.06824,-0.01706 c 0.02275,-0.0041 0.04549,-0.0062 0.06824,-0.0062 0.12924,0 0.2316,0.03541 0.30708,0.10624 0.07548,0.07083 0.11322,0.16672 0.11322,0.28769 0,0.12097 -0.03877,0.22152 -0.11632,0.29079 -0.07755,0.06927 -0.18688,0.10314 -0.32801,0.10314 -0.0486,0 -0.09822,-0.0041 -0.14889,-0.01241 l -0.15587,-0.03722 0,-0.15742 c 0.04653,0.02533 0.0946,0.0442 0.14423,0.05661 0.04963,0.01241 0.1021,0.01861 0.15742,0.01861 0.08944,0 0.16026,-0.02352 0.21247,-0.07057 0.05221,-0.04705 0.07832,-0.11089 0.07832,-0.19154 0,-0.08065 -0.02611,-0.14449 -0.07832,-0.19154 -0.05221,-0.04705 -0.12304,-0.07057 -0.21247,-0.07057 -0.04187,0 -0.08375,0.0047 -0.12562,0.01396 -0.04187,0.0093 -0.08375,0.02378 -0.12717,0.04342 l 0,-0.58159 m 1.03678,1.02592 0.2559,0 0,-0.88324 -0.27839,0.05583 0,-0.14268 0.27684,-0.05583 0.15664,0 0,1.02592 0.2559,0 0,0.13183 -0.66689,0 0,-0.13183 m 1.31904,-0.92279 c -0.08065,0 -0.14139,0.03981 -0.18223,0.11942 -0.04084,0.07961 -0.06048,0.19826 -0.06048,0.35748 0,0.15922 0.02016,0.27787 0.06048,0.35748 0.04032,0.07961 0.10158,0.11864 0.18223,0.11864 0.08065,0 0.14191,-0.03955 0.18223,-0.11864 0.04032,-0.07909 0.06126,-0.19877 0.06126,-0.35748 0,-0.15871 -0.02042,-0.27839 -0.06126,-0.35748 -0.04084,-0.07909 -0.10107,-0.11942 -0.18223,-0.11942 m 0,-0.12407 c 0.12976,0 0.22876,0.05144 0.297,0.15431 0.06824,0.10287 0.10313,0.25125 0.10313,0.44666 0,0.1949 -0.03438,0.34378 -0.10313,0.44666 -0.06875,0.10288 -0.16724,0.15354 -0.297,0.15354 -0.12976,0 -0.22902,-0.05118 -0.29777,-0.15354 -0.06875,-0.10236 -0.10236,-0.25176 -0.10236,-0.44666 0,-0.19541 0.03412,-0.3443 0.10236,-0.44666 0.06824,-0.10236 0.16801,-0.15431 0.29777,-0.15431 m 1.03057,0.53739 c -0.07031,0 -0.12614,0.02404 -0.1675,0.07212 -0.04136,0.04808 -0.06126,0.11399 -0.06126,0.19774 0,0.08375 0.02042,0.14915 0.06126,0.19774 0.04084,0.04859 0.09719,0.07212 0.1675,0.07212 0.07031,0 0.12588,-0.02404 0.16672,-0.07212 0.04084,-0.04808 0.06203,-0.11451 0.06204,-0.19774 10e-6,-0.08323 -0.02068,-0.14966 -0.06204,-0.19774 -0.04136,-0.04808 -0.09642,-0.07212 -0.16672,-0.07212 m 0.31095,-0.49086 0,0.14268 c -0.03929,-0.01861 -0.0791,-0.03283 -0.11942,-0.04265 -0.04032,-0.0098 -0.07935,-0.01473 -0.11864,-0.01473 -0.10339,0 -0.18249,0.0349 -0.23729,0.10469 -0.0548,0.06979 -0.0853,0.17525 -0.09305,0.31638 0.0305,-0.04497 0.06876,-0.07935 0.11477,-0.10313 0.04601,-0.02378 0.09667,-0.03645 0.15199,-0.03645 0.11632,0 0.20808,0.03541 0.27529,0.10624 0.06721,0.07083 0.10158,0.16621 0.10158,0.28769 0,0.12148 -0.03515,0.21428 -0.10546,0.28614 -0.07031,0.07186 -0.16388,0.10779 -0.28071,0.10779 -0.1339,0 -0.23625,-0.05118 -0.30708,-0.15354 -0.07083,-0.10236 -0.10624,-0.25176 -0.10624,-0.44666 0,-0.18301 0.04342,-0.32879 0.13028,-0.43735 0.08686,-0.10856 0.20343,-0.16362 0.34973,-0.16362 0.03929,0 0.07884,0.0039 0.11864,0.01163 l 0.12562,0.03489 m 0.85299,-0.02559 0.61493,0 0,0.13183 -0.47147,0 0,0.28382 0.06824,-0.01706 c 0.02275,-0.0041 0.04549,-0.0062 0.06824,-0.0062 0.12924,0 0.2316,0.03541 0.30708,0.10624 0.07548,0.07083 0.11322,0.16672 0.11322,0.28769 0,0.12097 -0.03877,0.22152 -0.11632,0.29079 -0.07755,0.06927 -0.18688,0.10314 -0.32802,0.10314 -0.0486,0 -0.09822,-0.0041 -0.14889,-0.01241 l -0.15587,-0.03722 0,-0.15742 c 0.04653,0.02533 0.09461,0.0442 0.14423,0.05661 0.04962,0.01241 0.1021,0.01861 0.15742,0.01861 0.08943,0 0.16026,-0.02352 0.21247,-0.07057 0.05221,-0.04705 0.07832,-0.11089 0.07832,-0.19154 0,-0.08065 -0.02611,-0.14449 -0.07832,-0.19154 -0.05221,-0.04705 -0.12304,-0.07057 -0.21247,-0.07057 -0.04188,0 -0.08375,0.0046 -0.12562,0.01396 -0.04187,0.0093 -0.08375,0.02378 -0.12717,0.04342 l 0,-0.58159 m 1.44001,0.13648 -0.39548,0.61803 0.39548,0 0,-0.61803 m -0.0411,-0.13648 0.19696,0 0,0.75451 0.16517,0 0,0.13028 -0.16517,0 0,0.27296 -0.15587,0 0,-0.27296 -0.52265,0 0,-0.15121 0.48156,-0.73358 m 0.9569,0.10313 c -0.08065,0 -0.14139,0.03981 -0.18223,0.11942 -0.04084,0.07961 -0.06048,0.19826 -0.06048,0.35748 0,0.15922 0.02016,0.27787 0.06048,0.35748 0.04032,0.07961 0.10158,0.11864 0.18223,0.11864 0.08065,0 0.14191,-0.03955 0.18223,-0.11864 0.04032,-0.07909 0.06126,-0.19877 0.06126,-0.35748 0,-0.15871 -0.02042,-0.27839 -0.06126,-0.35748 -0.04084,-0.07909 -0.10107,-0.11942 -0.18223,-0.11942 m 0,-0.12407 c 0.12976,0 0.22876,0.05144 0.297,0.15431 0.06824,0.10287 0.10313,0.25125 0.10314,0.44666 0,0.1949 -0.03438,0.34378 -0.10314,0.44666 -0.06876,0.10288 -0.16724,0.15354 -0.297,0.15354 -0.12976,0 -0.22902,-0.05118 -0.29777,-0.15354 -0.06875,-0.10236 -0.10236,-0.25176 -0.10236,-0.44666 0,-0.19541 0.03412,-0.3443 0.10236,-0.44666 0.06824,-0.10236 0.16801,-0.15431 0.29777,-0.15431 m 1.03057,0.53739 c -0.07031,0 -0.12614,0.02404 -0.1675,0.07212 -0.04136,0.04808 -0.06126,0.11399 -0.06126,0.19774 0,0.08375 0.02042,0.14915 0.06126,0.19774 0.04084,0.04859 0.09719,0.07212 0.1675,0.07212 0.07031,0 0.12588,-0.02404 0.16672,-0.07212 0.04084,-0.04808 0.06204,-0.11451 0.06204,-0.19774 0,-0.08323 -0.02068,-0.14966 -0.06204,-0.19774 -0.04136,-0.04808 -0.09641,-0.07212 -0.16672,-0.07212 m 0.31096,-0.49086 0,0.14268 c -0.03929,-0.01861 -0.0791,-0.03283 -0.11942,-0.04265 -0.04032,-0.0098 -0.07935,-0.01473 -0.11864,-0.01473 -0.10339,0 -0.18249,0.0349 -0.23729,0.10469 -0.0548,0.06979 -0.0853,0.17525 -0.09305,0.31638 0.0305,-0.04497 0.06876,-0.07935 0.11477,-0.10313 0.04601,-0.02378 0.09667,-0.03645 0.15199,-0.03645 0.11632,0 0.20808,0.03541 0.27529,0.10624 0.06721,0.07083 0.10158,0.16621 0.10158,0.28769 0,0.12148 -0.03515,0.21428 -0.10546,0.28614 -0.07031,0.07186 -0.16388,0.10779 -0.28071,0.10779 -0.13389,0 -0.23625,-0.05118 -0.30708,-0.15354 -0.07083,-0.10236 -0.10624,-0.25176 -0.10624,-0.44666 0,-0.18301 0.04342,-0.32879 0.13028,-0.43735 0.08686,-0.10856 0.20342,-0.16362 0.34973,-0.16362 0.03929,0 0.07884,0.0039 0.11864,0.01163 l 0.12562,0.03489 m 0.853,-0.02559 0.61493,0 0,0.13183 -0.47147,0 0,0.28382 0.06824,-0.01706 c 0.02275,-0.0041 0.04549,-0.0062 0.06824,-0.0062 0.12924,0 0.2316,0.03541 0.30708,0.10624 0.07548,0.07083 0.11322,0.16672 0.11322,0.28769 0,0.12097 -0.03877,0.22152 -0.11632,0.29079 -0.07755,0.06927 -0.18688,0.10314 -0.32802,0.10314 -0.0486,0 -0.09822,-0.0041 -0.14889,-0.01241 l -0.15586,-0.03722 0,-0.15742 c 0.04653,0.02533 0.0946,0.0442 0.14423,0.05661 0.04963,0.01241 0.1021,0.01861 0.15742,0.01861 0.08943,0 0.16026,-0.02352 0.21247,-0.07057 0.05221,-0.04705 0.07832,-0.11089 0.07832,-0.19154 0,-0.08065 -0.02611,-0.14449 -0.07832,-0.19154 -0.05221,-0.04705 -0.12304,-0.07057 -0.21247,-0.07057 -0.04188,0 -0.08375,0.0047 -0.12562,0.01396 -0.04187,0.0093 -0.08375,0.02378 -0.12717,0.04342 l 0,-0.58159 m 1.44001,0.13648 -0.39548,0.61803 0.39548,0 0,-0.61803 m -0.0411,-0.13648 0.19696,0 0,0.75451 0.16517,0 0,0.13028 -0.16517,0 0,0.27296 -0.15587,0 0,-0.27296 -0.52265,0 0,-0.15121 0.48155,-0.73358 m 0.97629,0.51645 c -0.07031,0 -0.12614,0.02404 -0.1675,0.07212 -0.04136,0.04808 -0.06126,0.11399 -0.06126,0.19774 0,0.08375 0.02042,0.14915 0.06126,0.19774 0.04084,0.04859 0.09719,0.07212 0.1675,0.07212 0.07031,0 0.12588,-0.02404 0.16672,-0.07212 0.04084,-0.04808 0.06204,-0.11451 0.06204,-0.19774 0,-0.08323 -0.02068,-0.14966 -0.06204,-0.19774 -0.04136,-0.04808 -0.09641,-0.07212 -0.16672,-0.07212 m 0.31095,-0.49086 0,0.14268 c -0.03929,-0.01861 -0.0791,-0.03283 -0.11942,-0.04265 -0.04032,-0.0098 -0.07935,-0.01473 -0.11864,-0.01473 -0.10339,0 -0.18249,0.0349 -0.23729,0.10469 -0.0548,0.06979 -0.0853,0.17525 -0.09305,0.31638 0.0305,-0.04497 0.06876,-0.07935 0.11477,-0.10313 0.04601,-0.02378 0.09667,-0.03645 0.15199,-0.03645 0.11632,0 0.20808,0.03541 0.27529,0.10624 0.06721,0.07083 0.10158,0.16621 0.10158,0.28769 0,0.12148 -0.03515,0.21428 -0.10546,0.28614 -0.07031,0.07186 -0.16388,0.10779 -0.28071,0.10779 -0.1339,0 -0.23625,-0.05118 -0.30708,-0.15354 -0.07083,-0.10236 -0.10624,-0.25176 -0.10624,-0.44666 0,-0.18301 0.04342,-0.32879 0.13028,-0.43735 0.08686,-0.10856 0.20343,-0.16362 0.34973,-0.16362 0.03929,0 0.07884,0.0039 0.11864,0.01163 l 0.12562,0.03489 m 0.3474,-0.02559 0.61493,0 0,0.13183 -0.47147,0 0,0.28382 0.06824,-0.01706 c 0.02275,-0.0041 0.04549,-0.0062 0.06824,-0.0062 0.12924,0 0.2316,0.03541 0.30708,0.10624 0.07548,0.07083 0.11322,0.16672 0.11322,0.28769 0,0.12097 -0.03877,0.22152 -0.11632,0.29079 -0.07755,0.06927 -0.18688,0.10314 -0.32802,0.10314 -0.04859,0 -0.09822,-0.0041 -0.14889,-0.01241 l -0.15587,-0.03722 0,-0.15742 c 0.04653,0.02533 0.09461,0.0442 0.14423,0.05661 0.04962,0.01241 0.1021,0.01861 0.15742,0.01861 0.08943,0 0.16026,-0.02352 0.21247,-0.07057 0.05221,-0.04705 0.07832,-0.11089 0.07832,-0.19154 0,-0.08065 -0.02611,-0.14449 -0.07832,-0.19154 -0.05221,-0.04705 -0.12304,-0.07057 -0.21247,-0.07057 -0.04187,0 -0.08375,0.0046 -0.12562,0.01396 -0.04187,0.0093 -0.08375,0.02378 -0.12717,0.04342 l 0,-0.58159 m 1.47568,0 0.74443,0 0,0.06669 -0.42029,1.09106 -0.16362,0 0.39548,-1.02592 -0.556,0 0,-0.13183 m 1.38573,0.10313 c -0.08065,0 -0.14139,0.03981 -0.18223,0.11942 -0.04084,0.07961 -0.06048,0.19826 -0.06048,0.35748 0,0.15922 0.02016,0.27787 0.06048,0.35748 0.04032,0.07961 0.10158,0.11864 0.18223,0.11864 0.08065,0 0.14191,-0.03955 0.18223,-0.11864 0.04032,-0.07909 0.06126,-0.19877 0.06126,-0.35748 0,-0.15871 -0.02042,-0.27839 -0.06126,-0.35748 -0.04084,-0.07909 -0.10107,-0.11942 -0.18223,-0.11942 m 0,-0.12407 c 0.12976,0 0.22876,0.05144 0.297,0.15431 0.06824,0.10287 0.10313,0.25125 0.10314,0.44666 0,0.1949 -0.03438,0.34378 -0.10314,0.44666 -0.06876,0.10288 -0.16724,0.15354 -0.297,0.15354 -0.12976,0 -0.22902,-0.05118 -0.29777,-0.15354 -0.06875,-0.10236 -0.10236,-0.25176 -0.10236,-0.44666 0,-0.19541 0.03412,-0.3443 0.10236,-0.44666 0.06824,-0.10236 0.16801,-0.15431 0.29777,-0.15431 m 1.03057,0.53739 c -0.07031,0 -0.12614,0.02404 -0.1675,0.07212 -0.04136,0.04808 -0.06126,0.11399 -0.06126,0.19774 0,0.08375 0.02042,0.14915 0.06126,0.19774 0.04084,0.04859 0.09719,0.07212 0.1675,0.07212 0.07031,0 0.12588,-0.02404 0.16672,-0.07212 0.04084,-0.04808 0.06204,-0.11451 0.06204,-0.19774 0,-0.08323 -0.02068,-0.14966 -0.06204,-0.19774 -0.04136,-0.04808 -0.09642,-0.07212 -0.16672,-0.07212 m 0.31095,-0.49086 0,0.14268 c -0.03929,-0.01861 -0.0791,-0.03283 -0.11942,-0.04265 -0.04032,-0.0098 -0.07935,-0.01473 -0.11864,-0.01473 -0.10339,0 -0.18249,0.0349 -0.23729,0.10469 -0.0548,0.06979 -0.0853,0.17525 -0.09305,0.31638 0.0305,-0.04497 0.06876,-0.07935 0.11477,-0.10313 0.04601,-0.02378 0.09667,-0.03645 0.15199,-0.03645 0.11632,0 0.20808,0.03541 0.27528,0.10624 0.0672,0.07083 0.10158,0.16621 0.10158,0.28769 0,0.12148 -0.03516,0.21428 -0.10546,0.28614 -0.0703,0.07186 -0.16388,0.10779 -0.28071,0.10779 -0.1339,0 -0.23625,-0.05118 -0.30708,-0.15354 -0.07083,-0.10236 -0.10624,-0.25176 -0.10624,-0.44666 0,-0.18301 0.04342,-0.32879 0.13028,-0.43735 0.08686,-0.10856 0.20343,-0.16362 0.34973,-0.16362 0.03929,0 0.07884,0.0039 0.11864,0.01163 l 0.12562,0.03489 m 0.3474,-0.02559 0.61493,0 0,0.13183 -0.47147,0 0,0.28382 0.06824,-0.01706 c 0.02275,-0.0041 0.04549,-0.0062 0.06824,-0.0062 0.12924,0 0.2316,0.03541 0.30708,0.10624 0.07548,0.07083 0.11321,0.16672 0.11322,0.28769 1e-5,0.12097 -0.03877,0.22152 -0.11632,0.29079 -0.07755,0.06927 -0.18688,0.10314 -0.32802,0.10314 -0.04859,0 -0.09822,-0.0041 -0.14889,-0.01241 l -0.15586,-0.03722 0,-0.15742 c 0.04653,0.02533 0.09461,0.0442 0.14423,0.05661 0.04962,0.01241 0.1021,0.01861 0.15742,0.01861 0.08944,0 0.16026,-0.02352 0.21247,-0.07057 0.05221,-0.04705 0.07832,-0.11089 0.07832,-0.19154 0,-0.08065 -0.02611,-0.14449 -0.07832,-0.19154 -0.05221,-0.04705 -0.12304,-0.07057 -0.21247,-0.07057 -0.04187,0 -0.08375,0.0046 -0.12562,0.01396 -0.04187,0.0093 -0.08375,0.02378 -0.12717,0.04342 l 0,-0.58159 m 1.47568,0 0.74443,0 0,0.06669 -0.42029,1.09106 -0.16362,0 0.39548,-1.02592 -0.556,0 0,-0.13183 m 1.40512,0.51645 c -0.07031,0 -0.12614,0.02404 -0.1675,0.07212 -0.04136,0.04808 -0.06126,0.11399 -0.06126,0.19774 0,0.08375 0.02042,0.14915 0.06126,0.19774 0.04084,0.04859 0.09719,0.07212 0.1675,0.07212 0.07031,0 0.12588,-0.02404 0.16672,-0.07212 0.04084,-0.04808 0.06204,-0.11451 0.06204,-0.19774 0,-0.08323 -0.02068,-0.14966 -0.06204,-0.19774 -0.04136,-0.04808 -0.09642,-0.07212 -0.16672,-0.07212 m 0.31095,-0.49086 0,0.14268 c -0.03929,-0.01861 -0.0791,-0.03283 -0.11942,-0.04265 -0.04032,-0.0098 -0.07935,-0.01473 -0.11864,-0.01473 -0.10339,0 -0.18249,0.0349 -0.23729,0.10469 -0.0548,0.06979 -0.0853,0.17525 -0.09305,0.31638 0.0305,-0.04497 0.06876,-0.07935 0.11477,-0.10313 0.04601,-0.02378 0.09667,-0.03645 0.15199,-0.03645 0.11632,0 0.20808,0.03541 0.27529,0.10624 0.06721,0.07083 0.10158,0.16621 0.10158,0.28769 0,0.12148 -0.03516,0.21428 -0.10546,0.28614 -0.0703,0.07186 -0.16388,0.10779 -0.28071,0.10779 -0.1339,0 -0.23625,-0.05118 -0.30708,-0.15354 -0.07083,-0.10236 -0.10624,-0.25176 -0.10624,-0.44666 0,-0.18301 0.04342,-0.32879 0.13027,-0.43735 0.08685,-0.10856 0.20343,-0.16362 0.34973,-0.16362 0.03929,0 0.07884,0.0039 0.11864,0.01163 l 0.12562,0.03489 m 0.3063,-0.02559 0.74443,0 0,0.06669 -0.42029,1.09106 -0.16362,0 0.39548,-1.02592 -0.556,0 0,-0.13183 m 1.05539,1.13371 0,-0.14268 c 0.03929,0.01861 0.0791,0.03283 0.11942,0.04265 l 0.11864,0.01473 c 0.10339,0 0.18223,-0.03464 0.23651,-0.10391 0.05428,-0.06927 0.08607,-0.17551 0.09383,-0.31716 -0.02999,0.04446 -0.06798,0.07858 -0.11399,0.10236 -0.04601,0.02378 -0.09693,0.03567 -0.15276,0.03567 -0.1158,0 -0.20756,-0.03489 -0.27528,-0.10469 -0.06772,-0.0698 -0.10081,-0.1662 -0.10081,-0.28769 0,-0.12149 0.03515,-0.21428 0.10546,-0.28614 0.07031,-0.07186 0.16388,-0.10779 0.28071,-0.10779 0.13389,0 0.23599,0.05144 0.3063,0.15431 0.07031,0.10287 0.10624,0.25125 0.10624,0.44666 0,0.18249 -0.04343,0.32827 -0.13027,0.43735 -0.08684,0.10908 -0.20265,0.16284 -0.34895,0.16284 -0.03929,0 -0.0791,-0.0039 -0.11942,-0.01163 l -0.12562,-0.0349 m 0.31173,-0.49086 c 0.07031,0 0.12588,-0.02404 0.16672,-0.07212 0.04084,-0.04808 0.06204,-0.11399 0.06204,-0.19774 0,-0.08375 -0.02068,-0.14888 -0.06204,-0.19696 -0.04136,-0.04808 -0.09641,-0.07289 -0.16672,-0.07289 -0.07031,0 -0.12614,0.0243 -0.1675,0.07289 -0.04136,0.04859 -0.06126,0.11373 -0.06126,0.19696 0,0.08323 0.02042,0.14966 0.06126,0.19774 0.04084,0.04808 0.09719,0.07212 0.1675,0.07212 m 0.69946,0.49086 0,-0.14268 c 0.03929,0.01861 0.07909,0.03283 0.11942,0.04265 l 0.11864,0.01473 c 0.10339,0 0.18223,-0.03464 0.23651,-0.10391 0.05428,-0.06927 0.08607,-0.17551 0.09383,-0.31716 -0.02998,0.04446 -0.06798,0.07858 -0.11399,0.10236 -0.04601,0.02378 -0.09693,0.03567 -0.15276,0.03567 -0.1158,0 -0.20756,-0.03489 -0.27528,-0.10469 -0.06772,-0.0698 -0.10081,-0.1662 -0.10081,-0.28769 0,-0.12149 0.03515,-0.21428 0.10546,-0.28614 0.07031,-0.07186 0.16388,-0.10779 0.28071,-0.10779 0.13389,0 0.236,0.05144 0.3063,0.15431 0.0703,0.10287 0.10624,0.25125 0.10624,0.44666 0,0.18249 -0.04343,0.32827 -0.13028,0.43735 -0.08685,0.10908 -0.20265,0.16284 -0.34895,0.16284 -0.03929,0 -0.0791,-0.0039 -0.11942,-0.01163 l -0.12562,-0.0349 m 0.31173,-0.49086 c 0.07031,0 0.12588,-0.02404 0.16672,-0.07212 0.04084,-0.04808 0.06204,-0.11399 0.06204,-0.19774 0,-0.08375 -0.02068,-0.14888 -0.06204,-0.19696 -0.04136,-0.04808 -0.09642,-0.07289 -0.16672,-0.07289 -0.0703,0 -0.12614,0.0243 -0.1675,0.07289 -0.04136,0.04859 -0.06126,0.11373 -0.06126,0.19696 0,0.08323 0.02042,0.14966 0.06126,0.19774 0.04084,0.04808 0.09719,0.07212 0.1675,0.07212"
     id="path5097"
     inkscape:connector-curvature="0" />
  <path
     d="m 22.772175,8.7757066 15.3125,0 a 1.03125,1 0 0 1 1.03125,1 1.03125,1 0 0 1 -1.03125,1.0000004 l -15.3125,0 a 1.03125,1 0 0 1 -1.03125,-1.0000004 1.03125,1 0 0 1 1.03125,-1"
     id="path5061-0"
     inkscape:connector-curvature="0"
     style="opacity:0.39766002;fill:#8d8d8d;fill-rule:evenodd" />
  <path
     d="m 22.762336,5.5240006 15.3125,0 a 1.03125,1 0 0 1 1.03125,1 1.03125,1 0 0 1 -1.03125,1 l -15.3125,0 a 1.03125,1 0 0 1 -1.03125,-1 1.03125,1 0 0 1 1.03125,-1"
     id="path5061-9"
     inkscape:connector-curvature="0"
     style="opacity:0.39766002;fill:#8d8d8d;fill-rule:evenodd" />
</svg>
